<?xml version="1.0" encoding="UTF-8"?>
<svg width="300px" height="29px" xmlns="http://www.w3.org/2000/svg" viewBox="0 0 430 42">
  <title>logo-amasci</title>
  <g>
    <g>
      <path d="M30.8,41.3H27V35.8a10.9,10.9,0,0,1-4.6,4.6A14.4,14.4,0,0,1,15.7,42a16.1,16.1,0,0,1-6.8-1.5,18.2,18.2,0,0,1-6.1-4.6,10.4,10.4,0,0,1-1.8-3.4A16.9,16.9,0,0,1,0,26.6a13.8,13.8,0,0,1,1.1-5.5,15.7,15.7,0,0,1,3.2-4.8,15.5,15.5,0,0,1,4.9-3.4,15,15,0,0,1,6.4-1.3,14.9,14.9,0,0,1,6.8,1.5,10.4,10.4,0,0,1,4.6,4.7V12.3h3.8v29ZM27,27a11.4,11.4,0,0,0-3.2-8.2,11.1,11.1,0,0,0-8.2-3.3,11.3,11.3,0,0,0-8.2,3.3,11,11,0,0,0-3.5,8.2,10.5,10.5,0,0,0,3.5,8,11.7,11.7,0,0,0,8.2,3.3,11,11,0,0,0,7.9-3.3A10.7,10.7,0,0,0,27,27Z" fill="#1d1d1b"></path>
      <path d="M80.8,41.3H76.8V25.1a21,21,0,0,0-.3-3.6,6.9,6.9,0,0,0-1.2-2.7,7.7,7.7,0,0,0-6.6-3.4,7.5,7.5,0,0,0-6.4,3.3,5.8,5.8,0,0,0-1,2.7,29.5,29.5,0,0,0-.2,3.8V41.3h-4V24.7a16.2,16.2,0,0,0-.3-3.2,7.7,7.7,0,0,0-1.1-2.6,7.6,7.6,0,0,0-6.6-3.5,8.4,8.4,0,0,0-3.6.7,7.8,7.8,0,0,0-2.8,2.3,7,7,0,0,0-1.1,2.7,19.5,19.5,0,0,0-.3,3.5V41.3H37.5v-29h3.7v3.8a7.2,7.2,0,0,1,3.1-3.3A9.5,9.5,0,0,1,49,11.6a11.6,11.6,0,0,1,9.4,4.4l.7,1.1.6-1.1a10.5,10.5,0,0,1,4-3.3A12.5,12.5,0,0,1,69,11.6q4.7,0,9,4.4A8.6,8.6,0,0,1,80.3,20a19.2,19.2,0,0,1,.5,4.8Z" fill="#1d1d1b"></path>
      <path d="M117.2,41.3h-3.8V35.8a10.9,10.9,0,0,1-4.6,4.6,14.4,14.4,0,0,1-6.7,1.6,16.1,16.1,0,0,1-6.8-1.5,18.2,18.2,0,0,1-6.1-4.6,10.4,10.4,0,0,1-1.8-3.4,16.9,16.9,0,0,1-1.1-5.8,13.8,13.8,0,0,1,1.1-5.5,15.7,15.7,0,0,1,3.2-4.8,15.5,15.5,0,0,1,4.9-3.4,16,16,0,0,1,13.1.3,10.4,10.4,0,0,1,4.6,4.7V12.3h3.8v29ZM113.4,27a11.4,11.4,0,0,0-3.2-8.2,11.1,11.1,0,0,0-8.2-3.3,11.3,11.3,0,0,0-8.2,3.3,11,11,0,0,0-3.5,8.2,10.5,10.5,0,0,0,3.5,8,11.7,11.7,0,0,0,8.2,3.3,11,11,0,0,0,7.9-3.3A10.7,10.7,0,0,0,113.4,27Z" fill="#1d1d1b"></path>
      <path d="M180.7,21.1h-4.4a11.6,11.6,0,0,0-9.9-5.7,12,12,0,0,0-8.4,3.2,10.6,10.6,0,0,0-3.5,8.1,11,11,0,0,0,3.4,8.1,11.1,11.1,0,0,0,8.2,3.3,11.8,11.8,0,0,0,5.8-1.4,13.1,13.1,0,0,0,4.5-4h4.4a15.6,15.6,0,0,1-5.7,6.7,15.2,15.2,0,0,1-8.5,2.4,15.8,15.8,0,0,1-11.2-4.3,14.1,14.1,0,0,1-4.7-10.9A14.3,14.3,0,0,1,155.2,16a15.6,15.6,0,0,1,11.1-4.3,15.9,15.9,0,0,1,8.8,2.6A14.1,14.1,0,0,1,180.7,21.1Z" fill="#1d1d1b"></path>
      <path d="M190,8.8h-3.9V2.9H190Zm0,32.5h-3.9v-29H190Z" fill="#1d1d1b"></path>
      <path d="M225.8,21.1h-4.4a11.6,11.6,0,0,0-9.9-5.7,12,12,0,0,0-8.4,3.2,10.6,10.6,0,0,0-3.5,8.1,11,11,0,0,0,3.4,8.1,11.1,11.1,0,0,0,8.2,3.3,11.8,11.8,0,0,0,5.8-1.4,13.1,13.1,0,0,0,4.5-4h4.4a15.6,15.6,0,0,1-5.7,6.7,15.2,15.2,0,0,1-8.5,2.4,15.8,15.8,0,0,1-11.2-4.3,14.1,14.1,0,0,1-4.7-10.9A14.3,14.3,0,0,1,200.3,16a15.6,15.6,0,0,1,11.1-4.3,15.9,15.9,0,0,1,8.8,2.6A14.1,14.1,0,0,1,225.8,21.1Z" fill="#ff5b00"></path>
      <path d="M243.3,15.5a8,8,0,0,0-5.3,2,7.5,7.5,0,0,0-2.4,3.2,13,13,0,0,0-.6,4.3V41.3h-3.9v-29h3.7v4.2a7.7,7.7,0,0,1,3.4-3.7,10.7,10.7,0,0,1,5.1-1.2Z" fill="#ff5b00"></path>
      <path d="M276.4,28.2H250a9,9,0,0,0,3.4,7,11.1,11.1,0,0,0,7.6,3,11.9,11.9,0,0,0,6.2-1.7,10.1,10.1,0,0,0,4.3-4.6h4.1a14.8,14.8,0,0,1-5.5,7.3,14.6,14.6,0,0,1-8.7,2.9,14.8,14.8,0,0,1-10.8-4.4A14.5,14.5,0,0,1,246,26.8a14.7,14.7,0,0,1,4.4-10.8,14.6,14.6,0,0,1,10.7-4.4,14.3,14.3,0,0,1,10.9,4.6Q276.4,20.7,276.4,28.2Zm-3.9-3.5A11.5,11.5,0,0,0,253.9,18a10.8,10.8,0,0,0-3.9,6.6Z" fill="#ff5b00"></path>
      <path d="M311.5,41.3h-3.8V35.8a10.9,10.9,0,0,1-4.6,4.6,14.4,14.4,0,0,1-6.7,1.6,16.1,16.1,0,0,1-6.8-1.5,18.2,18.2,0,0,1-6.1-4.6,10.4,10.4,0,0,1-1.8-3.4,16.9,16.9,0,0,1-1.1-5.8,13.8,13.8,0,0,1,1.1-5.5,15.7,15.7,0,0,1,3.2-4.8,15.5,15.5,0,0,1,4.9-3.4,16,16,0,0,1,13.1.3,10.4,10.4,0,0,1,4.6,4.7V12.3h3.8v29ZM307.7,27a11.4,11.4,0,0,0-3.2-8.2,11.1,11.1,0,0,0-8.2-3.3,11.3,11.3,0,0,0-8.2,3.3,11,11,0,0,0-3.5,8.2,10.5,10.5,0,0,0,3.5,8,11.7,11.7,0,0,0,8.2,3.3,11,11,0,0,0,7.9-3.3A10.7,10.7,0,0,0,307.7,27Z" fill="#ff5b00"></path>
      <path d="M332.2,15.9h-6.8V41.3h-3.9V15.9h-6.1V12.3h6.1V2.1h3.9V12.3h6.8Z" fill="#ff5b00"></path>
      <path d="M340.2,8.8h-3.9V2.9h3.9Zm0,32.5h-3.9v-29h3.9Z" fill="#ff5b00"></path>
      <path d="M372.6,12.3l-12.4,29h-4.1l-12.2-29h4.2l10.1,24.1,10.1-24.1Z" fill="#ff5b00"></path>
      <path d="M405.6,28.2H379.2a9,9,0,0,0,3.4,7,11.1,11.1,0,0,0,7.6,3,11.9,11.9,0,0,0,6.2-1.7,10.1,10.1,0,0,0,4.3-4.6h4.1a14.8,14.8,0,0,1-5.5,7.3,14.6,14.6,0,0,1-8.7,2.9,14.8,14.8,0,0,1-10.8-4.4,14.5,14.5,0,0,1-4.5-10.7,14.7,14.7,0,0,1,4.4-10.8,14.6,14.6,0,0,1,10.7-4.4,14.3,14.3,0,0,1,10.9,4.6Q405.6,20.7,405.6,28.2Zm-3.9-3.5A11.5,11.5,0,0,0,383.1,18a10.8,10.8,0,0,0-3.9,6.6Z" fill="#ff5b00"></path>
      <g>
        <path d="M145.7,33.4a7.3,7.3,0,0,1-3.2,6,12.2,12.2,0,0,1-7.6,2.5,12.5,12.5,0,0,1-7.8-2.4,7.5,7.5,0,0,1-3.2-6.2h3.8a5.2,5.2,0,0,0,2.1,4.1,7.6,7.6,0,0,0,5.1,1.7,8.4,8.4,0,0,0,5.2-1.7,4.9,4.9,0,0,0,2.1-4.1,4.4,4.4,0,0,0-.7-2.3,5.9,5.9,0,0,0-1.8-1.9,10.4,10.4,0,0,0-2.6-1.2l-3.1-.7-3.1-.7a10.5,10.5,0,0,1-3-1.4,6.6,6.6,0,0,1-2.2-2.4,6.2,6.2,0,0,1-.8-3,6.8,6.8,0,0,1,2.9-5.7,11.6,11.6,0,0,1,7.2-2.2A10.9,10.9,0,0,1,142,14a7,7,0,0,1,2.8,5.6h-3.7a4.5,4.5,0,0,0-1.8-3.7,7.5,7.5,0,0,0-4.7-1.4,6.5,6.5,0,0,0-4.3,1.5,4.5,4.5,0,0,0-1.8,3.6,3.8,3.8,0,0,0,1.4,3q1.4,1.2,5.7,2.2l3.6.9a10,10,0,0,1,3.2,1.6A7.2,7.2,0,0,1,145.7,33.4Z" fill="#1d1d1b"></path>
        <path d="M134.9,42a12.7,12.7,0,0,1-7.9-2.5,7.7,7.7,0,0,1-3.2-6.3h4.1a5.1,5.1,0,0,0,2,4,7.5,7.5,0,0,0,5,1.7,8.3,8.3,0,0,0,5.2-1.6,4.8,4.8,0,0,0,2.1-4,4.3,4.3,0,0,0-.7-2.2,5.8,5.8,0,0,0-1.7-1.8,10.3,10.3,0,0,0-2.6-1.2l-3.1-.7-3.1-.8a10.7,10.7,0,0,1-3-1.4,6.8,6.8,0,0,1-2.3-2.5,6.4,6.4,0,0,1-.8-3.1,7,7,0,0,1,3-5.8,11.8,11.8,0,0,1,7.3-2.2,11.1,11.1,0,0,1,7,2.3,7.1,7.1,0,0,1,2.9,5.7h-4a4.4,4.4,0,0,0-1.8-3.6,7.4,7.4,0,0,0-4.6-1.4,6.4,6.4,0,0,0-4.2,1.5,4.4,4.4,0,0,0-1.7,3.5,3.7,3.7,0,0,0,1.3,2.9c.9.8,2.8,1.5,5.6,2.1l3.6.9a10.2,10.2,0,0,1,3.3,1.6,7.3,7.3,0,0,1,3.4,6.2,7.5,7.5,0,0,1-3.2,6.1A12.4,12.4,0,0,1,134.9,42ZM124,33.3a7.4,7.4,0,0,0,3.1,6,12.4,12.4,0,0,0,7.8,2.4,12.1,12.1,0,0,0,7.6-2.5,7.2,7.2,0,0,0,3.1-5.9,7.1,7.1,0,0,0-3.3-6,9.9,9.9,0,0,0-3.2-1.6l-3.6-.9c-2.9-.7-4.8-1.4-5.7-2.2a4,4,0,0,1-1.4-3.1,4.7,4.7,0,0,1,1.8-3.7,6.7,6.7,0,0,1,4.4-1.5,7.7,7.7,0,0,1,4.8,1.4,4.7,4.7,0,0,1,1.9,3.6h3.4a6.9,6.9,0,0,0-2.8-5.4,10.8,10.8,0,0,0-6.8-2.2A11.5,11.5,0,0,0,128,14a6.7,6.7,0,0,0-2.9,5.6,6.1,6.1,0,0,0,.8,3,6.5,6.5,0,0,0,2.2,2.4,10.4,10.4,0,0,0,2.9,1.4l3.1.7,3.1.7a10.6,10.6,0,0,1,2.6,1.2,6,6,0,0,1,1.8,1.9,4.6,4.6,0,0,1,.7,2.4,5.1,5.1,0,0,1-2.2,4.2,8.6,8.6,0,0,1-5.3,1.7,7.8,7.8,0,0,1-5.1-1.8,5.4,5.4,0,0,1-2.1-4.1Z" fill="#1d1d1b"></path>
      </g>
    </g>
    <g>
      <path d="M412,13.7H405V0h1.4V12.4H412Z" fill="#868686"></path>
      <path d="M418.2,4.8h-2.4v8.9h-1.4V4.8h-2.1V3.5h2.1V0h1.4V3.5h2.4Z" fill="#868686"></path>
      <path d="M430,13.7h-1.3V11.8a4.8,4.8,0,0,1-4.1,2.1,4.9,4.9,0,0,1-2.2-.5,7.1,7.1,0,0,1-2.1-1.6,3.2,3.2,0,0,1-.8-1.3,5.4,5.4,0,0,1-.4-2,5,5,0,0,1,1.6-3.8,5.4,5.4,0,0,1,3.9-1.5,5.2,5.2,0,0,1,2.3.5,3.8,3.8,0,0,1,1.7,1.5V0H430Zm-1.3-5.1a3.7,3.7,0,0,0-1.2-2.8,4.1,4.1,0,0,0-2.9-1.1,3.9,3.9,0,0,0-2.8,1.1,3.7,3.7,0,0,0-1.2,2.8,3.9,3.9,0,0,0,1.2,2.8,3.9,3.9,0,0,0,2.9,1.2,4,4,0,0,0,4-4Z" fill="#868686"></path>
    </g>
  </g>
</svg>
