<svg xmlns="http://www.w3.org/2000/svg" viewBox="0 0 24 24">
  <title>share-reddit</title>
  <rect width="24" height="24" fill="#f54b00"/>
  <g>
    <path d="M21.4,11.5a2.2,2.2,0,0,0-3.6-1.6,10.6,10.6,0,0,0-5.2-1.5l1.1-3.3,2.9.7a1.8,1.8,0,1,0,.2-.8L13.5,4a.4.4,0,0,0-.5.3L11.7,8.3A10.8,10.8,0,0,0,6.2,9.8a2.2,2.2,0,1,0-2.6,3.5,3.8,3.8,0,0,0,0,.6c0,3.1,3.8,5.6,8.4,5.6s8.4-2.5,8.4-5.6a3.8,3.8,0,0,0,0-.6A2.2,2.2,0,0,0,21.4,11.5ZM18.3,4.6a1,1,0,1,1-1,1A1,1,0,0,1,18.3,4.6ZM3.5,11.5a1.3,1.3,0,0,1,1.3-1.3l.7.2a5.3,5.3,0,0,0-1.6,2.1A1.3,1.3,0,0,1,3.5,11.5Zm16,2.4c0,2.6-3.4,4.8-7.5,4.8s-7.5-2.1-7.5-4.8v-.3a3.2,3.2,0,0,1,.2-.8A4.4,4.4,0,0,1,6,10.9l.7-.5A10.2,10.2,0,0,1,12,9.1a10.1,10.1,0,0,1,5.3,1.4l.7.5a4.4,4.4,0,0,1,1.4,1.8,3.2,3.2,0,0,1,.2.8Zm.6-1.4a5.3,5.3,0,0,0-1.6-2.1l.7-.2a1.3,1.3,0,0,1,.9,2.3Z" fill="#fff"/>
    <path d="M10.5,12.9a1.3,1.3,0,0,0-1.3-1.3,1.3,1.3,0,0,0-1.3,1.3,1.3,1.3,0,0,0,1.3,1.3A1.3,1.3,0,0,0,10.5,12.9Z" fill="#fff"/>
    <path d="M14.8,11.6a1.3,1.3,0,0,0-1.3,1.3,1.3,1.3,0,0,0,1.3,1.3,1.3,1.3,0,0,0,1.3-1.3A1.3,1.3,0,0,0,14.8,11.6Z" fill="#fff"/>
    <path d="M14.5,16a3.4,3.4,0,0,1-2.4.7h0A3.4,3.4,0,0,1,9.5,16a.4.4,0,0,0-.6.6,4.1,4.1,0,0,0,3,1h0a4.1,4.1,0,0,0,3-1,.4.4,0,1,0-.6-.6Z" fill="#fff"/>
  </g>
</svg>
